<svg width="256px" height="256px" viewBox="-2.4 -2.4 28.80 28.80" xmlns="http://www.w3.org/2000/svg" fill="#ffffff" stroke="#ffffff" stroke-width="1.9440000000000002"><g id="SVGRepo_bgCarrier" stroke-width="0"></g><g id="SVGRepo_tracerCarrier" stroke-linecap="round" stroke-linejoin="round"></g><g id="SVGRepo_iconCarrier"> <defs> <style> .cls-1 { fill: #ffffff; fill-rule: evenodd; } </style> </defs> <path id="_3-dots-ver" data-name="3-dots-ver" class="cls-1" d="M1008,303a3,3,0,1,1,3-3A3,3,0,0,1,1008,303Zm0-4a1,1,0,1,0,1,1A1,1,0,0,0,1008,299Zm0-5a3,3,0,1,1,3-3A3,3,0,0,1,1008,294Zm0-4a1,1,0,1,0,1,1A1,1,0,0,0,1008,290Zm0,16a3,3,0,1,1-3,3A3,3,0,0,1,1008,306Zm0,4a1,1,0,1,0-1-1A1,1,0,0,0,1008,310Z" transform="translate(-1005 -288)"></path> </g></svg>